<svg xmlns="http://www.w3.org/2000/svg" viewBox="0 0 512 512">
  <rect width="512" height="512" rx="112" fill="#121212"/>
  <circle cx="256" cy="256" r="166" fill="#1ed760"/>
  <path fill="#06130a" d="M170 205c72-24 143-18 207 17 14 8 19 25 11 39s-25 19-39 11c-50-28-105-32-161-14-15 5-31-3-36-18s3-30 18-35zm18 70c49-15 96-10 140 14 12 7 16 22 10 34-7 12-22 17-34 10-32-18-66-21-101-10-13 4-27-3-31-16-4-14 3-28 16-32zm24 64c27-8 55-5 82 8 10 5 14 17 9 27s-17 14-27 9c-18-9-35-11-52-6-11 3-22-3-25-14-3-10 3-21 13-24z"/>
</svg>
